<svg width="64" height="64" viewBox="0 0 64 64" fill="none" xmlns="http://www.w3.org/2000/svg">
<rect width="64" height="64" rx="32" fill="url(#paint0_linear)"/>
<path d="M18.8961 13.0827C18.9476 13.8179 19.2758 14.2273 19.8043 14.1904C20.3295 14.1537 20.6009 13.7023 20.5495 12.9671L20.549 12.9603C20.4981 12.2319 20.1626 11.8161 19.6409 11.8526C19.1157 11.8893 18.8447 12.3475 18.8957 13.0759L18.8961 13.0827Z" fill="#00CE8E"/>
<path d="M42.5078 10.2196C42.9381 10.1895 43.2658 10.4457 43.3647 10.9836L41.7554 11.0961C41.7794 10.5633 42.0775 10.2497 42.5078 10.2196Z" fill="#00CE8E"/>
<path d="M25.0567 21.5282C25.0995 22.1415 25.4336 22.5369 25.9689 22.4994C26.5042 22.462 26.7936 22.023 26.7507 21.4098L26.7502 21.403C26.7073 20.7897 26.3563 20.3955 25.8244 20.4327C25.2925 20.4699 25.0133 20.9082 25.0562 21.5214L25.0567 21.5282Z" fill="#00CE8E"/>
<path d="M47.1044 18.0152L47.0434 18.0195L46.5809 20.0231L47.8379 19.9352L47.1044 18.0152Z" fill="#00CE8E"/>
<path fill-rule="evenodd" clip-rule="evenodd" d="M4.01969 14.9995C3.71344 10.6199 7.01554 6.82127 11.3951 6.51502L47.0799 4.01969C51.4595 3.71344 55.2582 7.01554 55.5644 11.3951L55.9803 17.3426C56.2866 21.7222 52.9845 25.5208 48.6049 25.8271L23.295 27.5969L23.3799 28.8102C23.5015 30.5497 24.1254 32.1343 25.0999 33.4322C24.9438 33.4532 24.786 33.4693 24.6266 33.4804C21.0519 33.7304 17.8961 31.3781 17.0145 28.0361L12.9201 28.3224C8.54046 28.6287 4.74183 25.3266 4.43558 20.947L4.01969 14.9995ZM19.9028 10.6325L19.2015 10.6815L18.3183 9.54146L19.2534 9.47607L19.9028 10.6325ZM21.5625 12.8962C21.6476 14.1126 21.0071 14.8859 19.8586 14.9662C18.71 15.0466 17.9679 14.3665 17.8831 13.1535L17.8827 13.1468C17.7985 11.944 18.4482 11.1564 19.5866 11.0768C20.725 10.9972 21.4777 11.6833 21.5621 12.8895L21.5625 12.8962ZM12.3588 15.4124L13.382 15.3408L13.0991 11.2955L14.5661 11.1929L14.5071 10.3493L10.5499 10.626L10.6089 11.4696L12.0759 11.367L12.3588 15.4124ZM15.2623 15.2093L16.2516 15.1402L16.1057 13.0531C16.0687 12.5246 16.402 12.1778 16.9644 12.1385C17.1169 12.1279 17.271 12.1409 17.4224 12.1644L17.362 11.3004C17.2619 11.2802 17.1215 11.2696 16.9894 11.2788C16.5049 11.3127 16.1827 11.5735 16.0923 11.985L16.0313 11.9893L15.9908 11.4099L15.0015 11.4791L15.2623 15.2093ZM25.9367 14.5412C26.9091 14.4732 27.4554 13.9107 27.5001 13.0905L27.5021 13.0699L26.5873 13.1339L26.5815 13.1479C26.5195 13.5267 26.2924 13.7367 25.8859 13.7651C25.3573 13.8021 25.0334 13.406 24.9806 12.6504L24.9801 12.6436C24.928 11.8983 25.1905 11.4646 25.7224 11.4274C26.1459 11.3977 26.4098 11.6176 26.4995 11.9756L26.5034 11.9822L27.4249 11.9177L27.4242 11.9076C27.2779 11.0803 26.6541 10.5826 25.6648 10.6517C24.4959 10.7335 23.8881 11.4875 23.9739 12.714L23.9744 12.7208C24.0611 13.9608 24.7712 14.6227 25.9367 14.5412ZM29.3905 14.2214L28.4012 14.2906L28.0406 9.13397L29.0299 9.0648L29.1699 11.0671L29.2309 11.0629C29.3721 10.6478 29.7236 10.3679 30.2556 10.3307C31.0856 10.2727 31.5684 10.7496 31.6307 11.6407L31.7994 14.053L30.8101 14.1221L30.657 11.9335C30.6203 11.4083 30.384 11.1456 29.9165 11.1783C29.4591 11.2103 29.2043 11.5584 29.2396 12.0632L29.3905 14.2214ZM33.9969 13.9776C34.5288 13.9404 34.891 13.6665 35.032 13.2481L35.0929 13.2439L35.1332 13.8198L36.1225 13.7506L35.8617 10.0204L34.8724 10.0896L35.023 12.2444C35.0583 12.7492 34.8171 13.0963 34.3292 13.1304C33.8616 13.1631 33.6425 12.9027 33.6056 12.3741L33.4528 10.1889L32.4635 10.258L32.6322 12.6703C32.6942 13.558 33.16 14.0361 33.9969 13.9776ZM39.3037 13.5248C39.0406 14.5339 38.5725 14.9003 37.651 14.9648C37.5358 14.9728 37.4102 14.9782 37.2945 14.9795L37.2424 14.2341C37.3106 14.2361 37.4091 14.2327 37.5006 14.2263C37.853 14.2016 38.0468 14.0519 38.0975 13.7555L38.1215 13.6109L36.5495 9.97232L37.637 9.89627L38.6172 12.6672L38.685 12.6624L39.27 9.78207L40.3136 9.70911L39.3037 13.5248ZM41.0781 9.15176L41.9522 9.09064L42.3528 8.34425L42.4138 8.33999L42.9178 9.02312L43.7919 8.96199L42.8443 7.82643L41.8584 7.89537L41.0781 9.15176ZM42.7516 13.3654C43.8425 13.2891 44.2796 12.6253 44.3621 12.1497L44.3665 12.1153L43.4449 12.1798L43.4362 12.2008C43.3784 12.3479 43.1539 12.5951 42.7203 12.6254C42.1951 12.6621 41.8416 12.3293 41.7886 11.7168L44.3567 11.5372L44.3351 11.2289C44.2563 10.1007 43.5265 9.40272 42.439 9.47877C41.3514 9.55482 40.7102 10.3657 40.7931 11.5515L40.7933 11.5549C40.8769 12.7509 41.6166 13.4448 42.7516 13.3654ZM42.8408 14.8844C43.1389 14.8636 43.3663 14.6094 43.3457 14.3146C43.3248 14.0165 43.0643 13.7963 42.7662 13.8172C42.4714 13.8378 42.2441 14.092 42.2649 14.3902C42.2855 14.6849 42.546 14.905 42.8408 14.8844ZM46.2697 13.0411L45.2804 13.1103L45.0196 9.38003L46.0089 9.31085L46.0491 9.88682L46.1101 9.88255C46.2513 9.46753 46.6029 9.1876 47.1348 9.15041C47.9649 9.09236 48.4476 9.5693 48.5099 10.4604L48.6786 12.8726L47.6893 12.9418L47.5363 10.7531C47.4995 10.228 47.2633 9.96534 46.7957 9.99803C46.3383 10.03 46.0835 10.3781 46.1188 10.8829L46.2697 13.0411ZM13.2286 24.3947C14.201 24.3267 14.7472 23.7642 14.792 22.9439L14.794 22.9234L13.8792 22.9873L13.8734 23.0014C13.8114 23.3802 13.5843 23.5901 13.1777 23.6186C12.6492 23.6555 12.3253 23.2594 12.2725 22.5039L12.272 22.4971C12.2199 21.7517 12.4824 21.318 13.0143 21.2808C13.4378 21.2512 13.7017 21.4711 13.7914 21.8291L13.7953 21.8356L14.7168 21.7712L14.7161 21.761C14.5697 20.9337 13.9459 20.436 12.9566 20.5052C11.7878 20.5869 11.18 21.341 11.2658 22.5675L11.2662 22.5742C11.3529 23.8143 12.0631 24.4762 13.2286 24.3947ZM17.3656 19.7747L16.6643 19.8238L15.7811 18.6837L16.7162 18.6183L17.3656 19.7747ZM17.9329 23.4086C17.792 23.827 17.4298 24.1009 16.8979 24.1381C16.061 24.1966 15.5952 23.7185 15.5331 22.8308L15.3644 20.4185L16.3538 20.3494L16.5066 22.5347C16.5435 23.0632 16.7626 23.3236 17.2302 23.2909C17.718 23.2568 17.9593 22.9097 17.924 22.4049L17.7733 20.2501L18.7627 20.1809L19.0235 23.9112L18.0342 23.9803L17.9939 23.4044L17.9329 23.4086ZM20.0162 23.8417L21.0055 23.7726L20.8546 21.6144C20.8193 21.1096 21.0741 20.7615 21.5315 20.7295C21.9991 20.6968 22.2353 20.9595 22.272 21.4846L22.4251 23.6733L23.4144 23.6041L23.2457 21.1918C23.1834 20.3008 22.7007 19.8238 21.8706 19.8819C21.3387 19.9191 20.9871 20.199 20.8459 20.614L20.7849 20.6183L20.7447 20.0423L19.7553 20.1115L20.0162 23.8417ZM27.8548 23.1778C27.916 24.052 27.2397 24.6542 26.1115 24.7331C25.0781 24.8054 24.4481 24.4136 24.3225 23.7857L24.3213 23.7688L25.3005 23.7003L25.3048 23.7136C25.3742 23.9267 25.6421 24.0578 26.0825 24.027C26.6111 23.99 26.9021 23.7211 26.8718 23.2874L26.8232 22.5929L26.7622 22.5972C26.583 23.0046 26.2049 23.2456 25.6866 23.2818C24.7481 23.3474 24.118 22.6629 24.0439 21.6024L24.0434 21.5957C23.9666 20.4979 24.4943 19.7188 25.4498 19.652C25.9614 19.6163 26.3787 19.839 26.608 20.2452L26.6554 20.2418L26.6127 19.632L27.6021 19.5628L27.8548 23.1778ZM32.02 23.0023L33.2804 22.9142L34.5682 17.9113L33.4162 17.9919L32.6011 21.8178L32.5401 21.822L31.1971 18.147L30.0485 18.2274L32.02 23.0023ZM38.9859 22.5152L35.7469 22.7417L35.405 17.8528L38.644 17.6263L38.703 18.4699L36.4872 18.6249L36.5696 19.8039L38.6601 19.6577L38.715 20.4438L36.6246 20.5899L36.7111 21.8266L38.9269 21.6716L38.9859 22.5152ZM40.0632 22.4399L41.0424 22.3714L40.8237 19.2443L40.8779 19.2405L43.3598 22.2094L44.2068 22.1502L43.865 17.2612L42.8858 17.3297L43.1035 20.4433L43.0493 20.4471L40.5752 17.4913L39.7214 17.551L40.0632 22.4399ZM46.1211 22.0163L45.0471 22.0914L46.4026 17.0838L47.6054 16.9997L49.648 21.7697L48.5706 21.845L48.1252 20.6846L46.4007 20.8051L46.1211 22.0163Z" fill="#00CE8E"/>
<path d="M26.377 39.2149C26.377 39.2149 27.1167 30.5166 34.3303 28.186C37.3724 27.2034 39.3557 25.8602 40.6326 24.6353C41.8468 23.4708 43.9305 23.9822 44.4238 25.5583C46.4374 31.9885 47.8577 44.18 31.6676 48.016C31.7674 47.9425 26.377 39.2149 26.377 39.2149V39.2149Z" fill="#FF5D9C"/>
<path d="M46.1651 43.623C46.1651 43.623 50.3619 45.3715 51.3748 49.9412C51.8042 51.8778 52.7791 52.9297 53.7602 53.4992C54.5958 53.9842 54.4802 55.1783 53.57 55.5188C49.8053 56.9271 43.0791 58.1142 37.9784 51.6722C37.7714 51.326 46.1651 43.623 46.1651 43.623V43.623Z" fill="#FF83B4"/>
<path d="M50.8544 48.3442C49.3697 44.9583 46.1651 43.623 46.1651 43.623C46.1651 43.623 37.7714 51.326 37.9784 51.6722C39.6612 53.7972 41.5206 55.0919 43.3923 55.8225C43.8121 54.0056 45.3062 52.5351 46.8845 52.071C48.9994 51.4494 50.2174 49.6708 50.8544 48.3442V48.3442Z" fill="#FF5D9C"/>
<path d="M35.5518 39.9255C35.5518 39.9255 37.8447 31.4787 45.3701 30.3707C48.5432 29.9037 50.7387 28.9073 52.2166 27.9108C53.6221 26.9634 55.5828 27.8103 55.7856 29.4441C56.6124 36.11 55.8189 48.3537 39.1802 49.4664C39.2918 49.4107 35.5518 39.9255 35.5518 39.9255V39.9255Z" fill="#FFABCD"/>
<path d="M35.5518 39.9259C35.5518 39.9259 39.2918 49.4111 39.1802 49.4669C41.5297 49.3097 43.5628 48.9309 45.3203 48.3769C45.1725 47.2695 45.2352 46.0548 45.6203 44.7434C47.1573 39.5096 44.7452 33.3408 43.5663 30.8018C37.4727 32.8513 35.5518 39.9259 35.5518 39.9259V39.9259Z" fill="#FF83B4"/>
<path d="M22.2912 49.4669C20.5375 49.4669 20.0006 48.6713 20 47.7681C19.9988 46.052 21.7458 46.1869 21.7652 46.1872C24.606 46.2779 26.6944 45.649 27.9722 44.3193C29.8563 42.3591 29.5142 39.3706 29.5104 39.3404L32.9028 38.9346C32.9269 39.1157 33.4609 43.4099 30.5171 46.504C28.645 48.4713 25.8796 49.4669 22.2912 49.4669V49.4669Z" fill="#FFB39D"/>
<path d="M42.1642 59.9994C43.918 59.9994 44.4555 59.2038 44.4555 58.3003C44.4555 56.629 42.7097 56.7191 42.6903 56.7197C39.8492 56.8104 37.7608 56.1812 36.483 54.8518C34.5992 52.8916 34.9412 49.9031 34.945 49.8729L31.5527 49.4668C31.5285 49.6482 30.9946 53.9424 33.9381 57.0363C35.8101 59.0038 38.5758 59.9994 42.1642 59.9994V59.9994Z" fill="#FFB39D"/>
<path d="M46.216 58.7074C47.9697 58.7074 48.5072 57.9118 48.5072 57.0083C48.5072 55.2722 46.7614 55.4271 46.7423 55.4277C43.9012 55.5184 41.8128 54.8892 40.5351 53.5598C38.6512 51.5996 38.9933 48.6111 38.9968 48.5809L35.6044 48.1748C35.5803 48.3562 35.0463 52.6504 37.9901 55.7443C39.8622 57.7118 42.6279 58.7074 46.216 58.7074V58.7074Z" fill="#FFCBBE"/>
<path d="M28.0866 40.6256C28.0866 40.6256 26.1165 49.3259 31.0848 56.9984C31.5443 57.7079 32.6216 57.7166 33.1002 57.019C33.7516 56.0687 34.4948 55.0032 34.4948 55.0032L36.7092 56.0786C37.6017 56.5117 38.6911 56.1397 39.0949 55.2638L40.0786 53.1306L43.0363 52.9534C43.7877 52.9087 44.1448 52.0457 43.6276 51.5221C41.1922 49.0572 36.3554 43.4989 36.1903 38.0928L28.0866 40.6256Z" fill="#60DAA8"/>
<path d="M38.5154 45.0345C37.2382 42.8748 36.263 40.4693 36.1903 38.0928L28.0866 40.6256C28.0866 40.6256 26.1165 49.3259 31.0848 56.9981C31.5443 57.7076 32.6216 57.7166 33.1002 57.0187C33.7519 56.0687 34.4948 55.0032 34.4948 55.0032L36.7095 56.0783C37.6017 56.5117 38.6911 56.1394 39.0952 55.2635C38.2999 54.7943 37.6667 54.3341 37.1631 53.9062C36.0693 52.9768 35.8748 51.392 36.7522 50.2716C37.9181 48.7829 38.3549 46.619 38.5154 45.0345V45.0345Z" fill="#00CE8E"/>
<path d="M25.3508 51.5346C23.5971 51.5346 23.0602 50.7387 23.0596 49.8354C23.0581 48.1754 24.8054 48.2543 24.8245 48.2549C27.6655 48.3455 29.754 47.7163 31.0317 46.387C32.9159 44.4265 32.5735 41.4379 32.57 41.4081L35.9624 41.002C35.9865 41.1833 36.5205 45.4773 33.5767 48.5714C31.7046 50.539 28.9389 51.5343 25.3508 51.5346V51.5346Z" fill="#FFCBBE"/>
<path d="M42.9748 38.4408C42.9748 40.4475 41.2749 42.074 39.1777 42.074C37.0807 42.074 35.3809 40.4475 35.3809 38.4408C35.3809 36.4344 37.0807 34.8076 39.1777 34.8076C41.2749 34.8076 42.9748 36.4344 42.9748 38.4408Z" fill="#B24E2F"/>
<path d="M39.5889 35.8473C39.5889 39.7838 36.2539 42.9751 32.1398 42.9751C28.0257 42.9751 24.6904 39.7838 24.6904 35.8473C24.6904 31.9108 28.0257 28.7197 32.1398 28.7197C36.2539 28.7197 39.5889 31.9108 39.5889 35.8473Z" fill="#FFDDCF"/>
<path d="M30.5254 28.8876C31.0452 28.7777 31.5853 28.7197 32.1399 28.7197C35.8852 28.7197 38.985 31.3649 39.5104 34.8089C30.8506 34.0284 30.5254 28.8876 30.5254 28.8876V28.8876Z" fill="#DD6642"/>
<path d="M33.7529 28.8876C33.2328 28.7777 32.6929 28.7197 32.1384 28.7197C28.3931 28.7197 25.2933 31.3646 24.7676 34.8086C33.4276 34.0282 33.7529 28.8876 33.7529 28.8876Z" fill="#E7896E"/>
<path d="M35.8195 38.2237C35.4981 38.2237 35.2373 37.9741 35.2373 37.6666V36.7417C35.2373 36.4341 35.4981 36.1846 35.8195 36.1846C36.1413 36.1846 36.4017 36.4341 36.4017 36.7417V37.6666C36.4017 37.9741 36.1413 38.2237 35.8195 38.2237Z" fill="#454545"/>
<path d="M28.4582 38.2237C28.1368 38.2237 27.876 37.9741 27.876 37.6666V36.7417C27.876 36.4341 28.1368 36.1846 28.4582 36.1846C28.7799 36.1846 29.0404 36.4341 29.0404 36.7417V37.6666C29.0404 37.9741 28.7799 38.2237 28.4582 38.2237Z" fill="#454545"/>
<path d="M32.5381 37.1097C32.4074 37.2928 32.2175 37.3151 32.1404 37.3151C32.0633 37.3151 31.8699 37.2948 31.7427 37.1097C31.5661 36.8526 31.205 36.7811 30.9365 36.9498C30.6678 37.1188 30.593 37.464 30.7693 37.7212C31.0737 38.1645 31.5861 38.429 32.1404 38.429C32.6944 38.429 33.2068 38.1645 33.5112 37.7212C33.6878 37.464 33.613 37.1188 33.3443 36.9498C33.2457 36.8881 32.81 36.7276 32.5381 37.1097Z" fill="#454545"/>
<defs>
<linearGradient id="paint0_linear" x1="-29.2341" y1="32.922" x2="32.922" y2="95.078" gradientUnits="userSpaceOnUse">
<stop stop-color="#FFDDEA"/>
<stop offset="1" stop-color="#FFF3F0"/>
</linearGradient>
</defs>
</svg>
